<svg xmlns="http://www.w3.org/2000/svg" xmlns:xlink="http://www.w3.org/1999/xlink" width="53" height="53" viewBox="0 0 53 53">
  <defs>
    <linearGradient id="linear-gradient" x1="0.23" y1="0.126" x2="0.834" y2="0.93" gradientUnits="objectBoundingBox">
      <stop offset="0" stop-color="#f857c3"/>
      <stop offset="1" stop-color="#e0139c"/>
    </linearGradient>
  </defs>
  <g id="Button" transform="translate(-153 -709)">
    <circle id="Ellipse_8" data-name="Ellipse 8" cx="26.5" cy="26.5" r="26.5" transform="translate(153 709)" fill="url(#linear-gradient)"/>
    <g id="add" transform="translate(167.309 723.309)">
      <g id="Group_15" data-name="Group 15" transform="translate(11.404)">
        <g id="Group_14" data-name="Group 14">
          <path id="Path_77" data-name="Path 77" d="M236.32,0a1,1,0,0,0-1,1V23.81a1,1,0,1,0,2,0V1A1,1,0,0,0,236.32,0Z" transform="translate(-235.318 0)" fill="#fff" stroke="#fff" stroke-width="3"/>
        </g>
      </g>
      <g id="Group_17" data-name="Group 17" transform="translate(0 11.404)">
        <g id="Group_16" data-name="Group 16">
          <path id="Path_78" data-name="Path 78" d="M23.81,235.318H1a1,1,0,1,0,0,2H23.81a1,1,0,1,0,0-2Z" transform="translate(0 -235.318)" fill="#fff" stroke="#fff" stroke-width="3"/>
        </g>
      </g>
    </g>
  </g>
</svg>
